<svg width="20" height="20" viewBox="0 0 20 20" fill="none" xmlns="http://www.w3.org/2000/svg">
<path d="M4.85714 0V6.42857M15.1429 0V6.42857M4.21429 9.64286H8.07143M15.7857 9.64286H11.9286M4.21429 13.5H8.07143M11.9286 13.5H15.7857M2.28571 3.21429H17.7143C18.0553 3.21429 18.3823 3.34974 18.6234 3.59086C18.8645 3.83198 19 4.15901 19 4.5V17.3571C19 17.6981 18.8645 18.0252 18.6234 18.2663C18.3823 18.5074 18.0553 18.6429 17.7143 18.6429H2.28571C1.94472 18.6429 1.6177 18.5074 1.37658 18.2663C1.13546 18.0252 1 17.6981 1 17.3571V4.5C1 4.15901 1.13546 3.83198 1.37658 3.59086C1.6177 3.34974 1.94472 3.21429 2.28571 3.21429Z" stroke="#132330" stroke-width="1.5"/>
</svg>
