<svg width="21" height="20" viewBox="0 0 21 20" fill="none" xmlns="http://www.w3.org/2000/svg">
<path d="M1.52197 19H20.0001M1.52197 19V14.3805L10.761 5.14146M1.52197 19H6.14149L15.3805 9.76096M10.761 5.14146L14.0739 1.82851L14.076 1.82654C14.5319 1.3705 14.7604 1.14208 15.0237 1.05653C15.2557 0.981158 15.5055 0.981158 15.7375 1.05653C16.0006 1.14202 16.2288 1.37018 16.6842 1.82557L18.6934 3.83483C19.1508 4.29219 19.3795 4.52097 19.4652 4.78466C19.5406 5.01661 19.5405 5.26646 19.4652 5.49841C19.3797 5.76191 19.1512 5.99035 18.6945 6.44704L18.6934 6.44803L15.3805 9.76096M10.761 5.14146L15.3805 9.76096" stroke="#667085" stroke-width="2" stroke-linecap="round" stroke-linejoin="round"/>
</svg>
