<svg width="24" height="25" viewBox="0 0 24 25" fill="none" xmlns="http://www.w3.org/2000/svg">
<path d="M1.5 21V6.5M1.5 21C1.5 21 1.5 24 0 24M1.5 21H22.5M22.5 21C22.5 21 22.5 24 24 24M22.5 21V15.5C22.5 14.5717 22.1313 13.6815 21.4749 13.0251C20.8185 12.3687 19.9283 12 19 12H10.5V16M1.5 18H22.5M16 10V9.60555C16 8.60249 15.4906 7.65498 14.5305 7.36471C13.8769 7.16711 13.022 7 12 7C10.978 7 10.1231 7.16711 9.46954 7.36471C8.5094 7.65498 8 8.60249 8 9.60555V10M8.5 13.9C8.5 13.9 7.5 15.5 6.25 15.5C5.78587 15.5 5.34075 15.3156 5.01256 14.9874C4.68437 14.6592 4.5 14.2141 4.5 13.75C4.5 12.784 5.284 12.004 6.25 12.004C7.5 12.004 8.5 13.6 8.5 13.6V13.9ZM11.852 5C11.852 5 10.252 4 10.252 2.75C10.252 1.784 11.036 1 12.002 1C12.969 1 13.748 1.784 13.748 2.75C13.748 4 12.152 5 12.152 5H11.852Z" stroke="#132330" stroke-width="1.5"/>
</svg>
