<svg width="23" height="20" viewBox="0 0 23 20" fill="none" xmlns="http://www.w3.org/2000/svg">
<g clip-path="url(#clip0_1956_21762)">
<path d="M11.4204 8.57895C13.5132 8.57895 15.2098 6.88234 15.2098 4.78947C15.2098 2.69661 13.5132 1 11.4204 1C9.32747 1 7.63086 2.69661 7.63086 4.78947C7.63086 6.88234 9.32747 8.57895 11.4204 8.57895Z" stroke="#132330" stroke-width="1.5"/>
<path d="M17.1055 7.63137C18.6752 7.63137 19.9476 6.57099 19.9476 5.26295C19.9476 3.95491 18.6752 2.89453 17.1055 2.89453" stroke="#132330" stroke-width="1.5" stroke-linecap="round"/>
<path d="M5.73664 7.63137C4.16699 7.63137 2.89453 6.57099 2.89453 5.26295C2.89453 3.95491 4.16699 2.89453 5.73664 2.89453" stroke="#132330" stroke-width="1.5" stroke-linecap="round"/>
<path d="M11.4205 19.0009C14.5598 19.0009 17.1047 17.3043 17.1047 15.2114C17.1047 13.1185 14.5598 11.4219 11.4205 11.4219C8.28123 11.4219 5.73633 13.1185 5.73633 15.2114C5.73633 17.3043 8.28123 19.0009 11.4205 19.0009Z" stroke="#132330" stroke-width="1.5"/>
<path d="M19 17.106C20.6619 16.7415 21.8421 15.8186 21.8421 14.7375C21.8421 13.6565 20.6619 12.7336 19 12.3691" stroke="#132330" stroke-width="1.5" stroke-linecap="round"/>
<path d="M3.84211 17.106C2.18018 16.7415 1 15.8186 1 14.7375C1 13.6565 2.18018 12.7336 3.84211 12.3691" stroke="#132330" stroke-width="1.5" stroke-linecap="round"/>
</g>
<defs>
<clipPath id="clip0_1956_21762">
<rect width="23" height="20" fill="white"/>
</clipPath>
</defs>
</svg>
