<svg width="20" height="17" viewBox="0 0 20 17" fill="none" xmlns="http://www.w3.org/2000/svg">
<path d="M2.1475 11.1664C1.3825 10.1728 1 9.6751 1 8.2C1 6.724 1.3825 6.2281 2.1475 5.2336C3.6748 3.25 6.2362 1 10 1C13.7638 1 16.3252 3.25 17.8525 5.2336C18.6175 6.229 19 6.7249 19 8.2C19 9.676 18.6175 10.1719 17.8525 11.1664C16.3252 13.15 13.7638 15.4 10 15.4C6.2362 15.4 3.6748 13.15 2.1475 11.1664Z" stroke="#667085" stroke-width="2"/>
<path d="M12.7008 8.2C12.7008 8.91608 12.4163 9.60284 11.91 10.1092C11.4036 10.6155 10.7169 10.9 10.0008 10.9C9.2847 10.9 8.59794 10.6155 8.09159 10.1092C7.58524 9.60284 7.30078 8.91608 7.30078 8.2C7.30078 7.48392 7.58524 6.79716 8.09159 6.29081C8.59794 5.78446 9.2847 5.5 10.0008 5.5C10.7169 5.5 11.4036 5.78446 11.91 6.29081C12.4163 6.79716 12.7008 7.48392 12.7008 8.2Z" stroke="#667085" stroke-width="2"/>
</svg>
